<?xml version="1.0" standalone="no"?>
<!DOCTYPE svg PUBLIC "-//W3C//DTD SVG 20010904//EN"
 "http://www.w3.org/TR/2001/REC-SVG-20010904/DTD/svg10.dtd">
<svg version="1.0" xmlns="http://www.w3.org/2000/svg"
 width="1024.000000pt" height="1024.000000pt" viewBox="0 0 1024.000000 1024.000000"
 preserveAspectRatio="xMidYMid meet">
<metadata>
Created by potrace 1.14, written by Peter Selinger 2001-2017
</metadata>
<g transform="translate(0.000000,1024.000000) scale(0.100000,-0.100000)"
fill="#000000" stroke="none">
<path d="M0 5120 l0 -5120 5120 0 5120 0 0 5120 0 5120 -5120 0 -5120 0 0
-5120z m4480 3021 c0 -4 -13 -53 -29 -107 -125 -420 -214 -939 -276 -1594 -22
-237 -49 -659 -43 -665 3 -4 212 3 464 14 253 12 552 24 665 27 l207 7 11 126
c33 342 80 667 132 908 30 137 111 421 155 539 47 129 173 386 219 446 92 124
289 224 555 283 70 15 390 34 390 23 0 -3 -14 -49 -30 -103 -59 -192 -120
-467 -174 -780 -48 -281 -103 -784 -142 -1297 l-6 -88 43 0 c24 1 69 9 99 20
130 46 225 6 292 -124 21 -39 22 -61 30 -406 5 -201 7 -418 6 -484 l-3 -118
-60 -19 c-84 -26 -231 -55 -354 -70 l-104 -12 7 -426 c13 -823 57 -1329 137
-1577 27 -83 55 -108 113 -102 24 3 65 15 90 28 62 29 188 150 283 269 42 53
106 133 142 178 69 86 103 110 146 99 44 -11 51 -46 26 -123 -28 -85 -153
-346 -222 -461 -124 -207 -277 -414 -365 -491 -80 -70 -124 -86 -239 -86 -180
0 -309 59 -461 210 -189 188 -352 494 -469 880 -61 201 -131 521 -165 750 -31
214 -80 658 -80 733 0 23 -2 24 -57 18 -73 -8 -944 -73 -1232 -92 l-104 -6 6
-362 c14 -804 86 -1401 183 -1516 32 -37 63 -39 204 -9 86 17 104 18 127 7 25
-12 28 -19 31 -67 6 -105 -46 -284 -111 -389 -35 -54 -120 -118 -193 -143 -75
-27 -222 -36 -295 -19 -30 6 -96 32 -148 58 -83 40 -108 59 -206 156 -157 157
-241 290 -339 542 -176 452 -294 1007 -348 1639 -17 197 -17 1067 0 1305 16
215 47 511 72 686 53 358 163 810 260 1068 54 143 176 377 226 434 121 138
342 234 654 285 50 8 280 7 280 -2z"/>
</g>
</svg>
